<mxfile host="app.diagrams.net" agent="Mozilla/5.0 (Windows NT 10.0; Win64; x64) AppleWebKit/537.36 (KHTML, like Gecko) Chrome/130.0.0.0 Safari/537.36" version="24.8.2">
  <diagram name="Page-1" id="LI1cqc4f5GoJ5b9z3YXY">
    <mxGraphModel dx="600" dy="354" grid="1" gridSize="10" guides="1" tooltips="1" connect="1" arrows="1" fold="1" page="1" pageScale="1" pageWidth="850" pageHeight="1100" math="0" shadow="0">
      <root>
        <mxCell id="0" />
        <mxCell id="1" parent="0" />
        <mxCell id="9z99N92EfXgimf6kSds7-8" value="ALUA&lt;br&gt;MUX" style="shadow=0;dashed=0;align=center;html=1;strokeWidth=1;shape=mxgraph.electrical.abstract.mux2;whiteSpace=wrap;selectorPins=2;" parent="1" vertex="1">
          <mxGeometry x="674" y="481" width="80" height="120" as="geometry" />
        </mxCell>
        <mxCell id="9z99N92EfXgimf6kSds7-11" style="edgeStyle=orthogonalEdgeStyle;rounded=0;orthogonalLoop=1;jettySize=auto;html=1;exitX=1;exitY=0.5;exitDx=0;exitDy=-5;exitPerimeter=0;entryX=-0.033;entryY=0.12;entryDx=0;entryDy=0;entryPerimeter=0;" parent="1" source="9z99N92EfXgimf6kSds7-8" target="9z99N92EfXgimf6kSds7-6" edge="1">
          <mxGeometry relative="1" as="geometry" />
        </mxCell>
        <mxCell id="9z99N92EfXgimf6kSds7-20" value="" style="endArrow=classic;html=1;rounded=0;entryX=0.015;entryY=0.153;entryDx=0;entryDy=0;exitX=0.992;exitY=0.142;exitDx=0;exitDy=0;exitPerimeter=0;entryPerimeter=0;" parent="1" target="9z99N92EfXgimf6kSds7-13" edge="1">
          <mxGeometry width="50" height="50" relative="1" as="geometry">
            <mxPoint x="289.68000000000006" y="495.02" as="sourcePoint" />
            <mxPoint x="430.84000000000015" y="495.3599999999999" as="targetPoint" />
          </mxGeometry>
        </mxCell>
        <mxCell id="9z99N92EfXgimf6kSds7-21" value="Addr. A" style="text;html=1;align=center;verticalAlign=middle;resizable=0;points=[];autosize=1;strokeColor=none;fillColor=none;" parent="1" vertex="1">
          <mxGeometry x="313" y="473" width="60" height="30" as="geometry" />
        </mxCell>
        <mxCell id="9z99N92EfXgimf6kSds7-26" value="" style="endArrow=classic;html=1;rounded=0;entryX=0;entryY=0.325;entryDx=0;entryDy=3;entryPerimeter=0;" parent="1" target="9z99N92EfXgimf6kSds7-8" edge="1">
          <mxGeometry width="50" height="50" relative="1" as="geometry">
            <mxPoint x="560" y="523" as="sourcePoint" />
            <mxPoint x="610.0000000000001" y="522.9999999999999" as="targetPoint" />
          </mxGeometry>
        </mxCell>
        <mxCell id="9z99N92EfXgimf6kSds7-27" value="" style="endArrow=none;html=1;rounded=0;" parent="1" edge="1">
          <mxGeometry width="50" height="50" relative="1" as="geometry">
            <mxPoint x="292" y="600" as="sourcePoint" />
            <mxPoint x="560" y="600" as="targetPoint" />
          </mxGeometry>
        </mxCell>
        <mxCell id="9z99N92EfXgimf6kSds7-28" value="" style="endArrow=none;html=1;rounded=0;" parent="1" edge="1">
          <mxGeometry width="50" height="50" relative="1" as="geometry">
            <mxPoint x="560" y="600" as="sourcePoint" />
            <mxPoint x="560" y="523" as="targetPoint" />
          </mxGeometry>
        </mxCell>
        <mxCell id="9z99N92EfXgimf6kSds7-32" value="Imm" style="text;html=1;align=center;verticalAlign=middle;resizable=0;points=[];autosize=1;strokeColor=none;fillColor=none;" parent="1" vertex="1">
          <mxGeometry x="283" y="577" width="50" height="30" as="geometry" />
        </mxCell>
        <mxCell id="9z99N92EfXgimf6kSds7-35" value="RD1" style="text;html=1;align=center;verticalAlign=middle;resizable=0;points=[];autosize=1;strokeColor=none;fillColor=none;" parent="1" vertex="1">
          <mxGeometry x="501" y="474" width="50" height="30" as="geometry" />
        </mxCell>
        <mxCell id="9z99N92EfXgimf6kSds7-36" value="" style="endArrow=none;html=1;rounded=0;entryX=0.997;entryY=0.574;entryDx=0;entryDy=0;entryPerimeter=0;" parent="1" target="9z99N92EfXgimf6kSds7-13" edge="1">
          <mxGeometry width="50" height="50" relative="1" as="geometry">
            <mxPoint x="571" y="532" as="sourcePoint" />
            <mxPoint x="511" y="532" as="targetPoint" />
          </mxGeometry>
        </mxCell>
        <mxCell id="9z99N92EfXgimf6kSds7-37" value="RD2" style="text;html=1;align=center;verticalAlign=middle;resizable=0;points=[];autosize=1;strokeColor=none;fillColor=none;" parent="1" vertex="1">
          <mxGeometry x="501" y="511" width="50" height="30" as="geometry" />
        </mxCell>
        <mxCell id="9z99N92EfXgimf6kSds7-39" value="" style="endArrow=none;html=1;rounded=0;" parent="1" edge="1">
          <mxGeometry width="50" height="50" relative="1" as="geometry">
            <mxPoint x="571" y="632" as="sourcePoint" />
            <mxPoint x="571" y="532" as="targetPoint" />
          </mxGeometry>
        </mxCell>
        <mxCell id="9z99N92EfXgimf6kSds7-40" value="" style="endArrow=classic;html=1;rounded=0;entryX=-0.027;entryY=0.915;entryDx=0;entryDy=0;entryPerimeter=0;" parent="1" target="9z99N92EfXgimf6kSds7-6" edge="1">
          <mxGeometry width="50" height="50" relative="1" as="geometry">
            <mxPoint x="571" y="632" as="sourcePoint" />
            <mxPoint x="747.64" y="632" as="targetPoint" />
          </mxGeometry>
        </mxCell>
        <mxCell id="9z99N92EfXgimf6kSds7-47" value="" style="group" parent="1" vertex="1" connectable="0">
          <mxGeometry x="150" y="172" width="80" height="80" as="geometry" />
        </mxCell>
        <mxCell id="9z99N92EfXgimf6kSds7-45" value="" style="whiteSpace=wrap;html=1;aspect=fixed;" parent="9z99N92EfXgimf6kSds7-47" vertex="1">
          <mxGeometry width="80" height="80" as="geometry" />
        </mxCell>
        <mxCell id="9z99N92EfXgimf6kSds7-46" value="Instruction &lt;br&gt;Memory" style="text;html=1;align=center;verticalAlign=middle;resizable=0;points=[];autosize=1;strokeColor=none;fillColor=none;" parent="9z99N92EfXgimf6kSds7-47" vertex="1">
          <mxGeometry y="20" width="80" height="40" as="geometry" />
        </mxCell>
        <mxCell id="9z99N92EfXgimf6kSds7-48" value="" style="group" parent="1" vertex="1" connectable="0">
          <mxGeometry x="172" y="292" width="40" height="60" as="geometry" />
        </mxCell>
        <mxCell id="9z99N92EfXgimf6kSds7-43" value="" style="rounded=0;whiteSpace=wrap;html=1;" parent="9z99N92EfXgimf6kSds7-48" vertex="1">
          <mxGeometry width="40" height="60" as="geometry" />
        </mxCell>
        <mxCell id="9z99N92EfXgimf6kSds7-44" value="PC" style="text;html=1;align=center;verticalAlign=middle;resizable=0;points=[];autosize=1;strokeColor=none;fillColor=none;" parent="9z99N92EfXgimf6kSds7-48" vertex="1">
          <mxGeometry y="15" width="40" height="30" as="geometry" />
        </mxCell>
        <mxCell id="9z99N92EfXgimf6kSds7-49" value="" style="group" parent="1" vertex="1" connectable="0">
          <mxGeometry x="250" y="462" width="40" height="310" as="geometry" />
        </mxCell>
        <mxCell id="9z99N92EfXgimf6kSds7-17" value="" style="rounded=0;whiteSpace=wrap;html=1;" parent="9z99N92EfXgimf6kSds7-49" vertex="1">
          <mxGeometry width="40" height="310" as="geometry" />
        </mxCell>
        <mxCell id="9z99N92EfXgimf6kSds7-18" value="Instruction Register" style="text;strokeColor=none;align=center;fillColor=none;html=1;verticalAlign=middle;whiteSpace=wrap;rounded=0;rotation=-90;" parent="9z99N92EfXgimf6kSds7-49" vertex="1">
          <mxGeometry x="-40" y="138" width="120" height="30" as="geometry" />
        </mxCell>
        <mxCell id="9z99N92EfXgimf6kSds7-50" value="" style="group" parent="1" vertex="1" connectable="0">
          <mxGeometry x="431" y="470" width="99" height="130" as="geometry" />
        </mxCell>
        <mxCell id="9z99N92EfXgimf6kSds7-13" value="" style="whiteSpace=wrap;html=1;aspect=fixed;" parent="9z99N92EfXgimf6kSds7-50" vertex="1">
          <mxGeometry x="-22" y="12.100000000000001" width="89" height="89" as="geometry" />
        </mxCell>
        <mxCell id="9z99N92EfXgimf6kSds7-15" value="Register File" style="text;strokeColor=none;align=center;fillColor=none;html=1;verticalAlign=middle;whiteSpace=wrap;rounded=0;" parent="9z99N92EfXgimf6kSds7-50" vertex="1">
          <mxGeometry x="7.5" y="40.1" width="30" height="33" as="geometry" />
        </mxCell>
        <mxCell id="fiiHyoLvmpqvS7D3LmOV-9" value="SHFT OUT" style="text;html=1;align=center;verticalAlign=middle;resizable=0;points=[];autosize=1;strokeColor=none;fillColor=none;" parent="9z99N92EfXgimf6kSds7-50" vertex="1">
          <mxGeometry x="22" y="97" width="80" height="30" as="geometry" />
        </mxCell>
        <mxCell id="9z99N92EfXgimf6kSds7-51" value="" style="group" parent="1" vertex="1" connectable="0">
          <mxGeometry x="749" y="521" width="80" height="120" as="geometry" />
        </mxCell>
        <mxCell id="K2oi60XM3H0Ri219pjTM-1" value="" style="group" parent="9z99N92EfXgimf6kSds7-51" vertex="1" connectable="0">
          <mxGeometry x="44" width="80" height="120" as="geometry" />
        </mxCell>
        <mxCell id="9z99N92EfXgimf6kSds7-6" value="" style="shape=stencil(tZXRjoIwEEW/pq+bQsPq6wb1PyqOS2NtSdvV3b93oGCs0I0IJISkc7mHIb1DCcttySsgKS0J25A0TSjFO66vT2tuKyicL164EXwvwSvWGX2Cqzi4liFUCUa4WmVbQr/wmfpieaGVQojQygbKg44wLhR66a+Hta//C1YV8s/gwLRNNtXd68yPbAFqskSnIbPre95OZ6KGvSaL7NQ81ORNJsuxEgsxy/e8OH0b/aMOfVdUO2oDA8JdFlL6AYt9YMXruesJnXzWF/h/moawnVsK9eC+/wxaP5sKWI0FPGWMTvOvx9qz0P+ZTfOzsf7Q/sL+FVLbaHKwHgkPHguDmWs8vcQ2VX+ONIUb);whiteSpace=wrap;html=1;" parent="K2oi60XM3H0Ri219pjTM-1" vertex="1">
          <mxGeometry width="80" height="120" as="geometry" />
        </mxCell>
        <mxCell id="9z99N92EfXgimf6kSds7-7" value="ALU" style="text;strokeColor=none;align=center;fillColor=none;html=1;verticalAlign=middle;whiteSpace=wrap;rounded=0;" parent="K2oi60XM3H0Ri219pjTM-1" vertex="1">
          <mxGeometry x="43" y="43" width="30" height="30" as="geometry" />
        </mxCell>
        <mxCell id="K2oi60XM3H0Ri219pjTM-37" value="RD2" style="text;html=1;align=center;verticalAlign=middle;resizable=0;points=[];autosize=1;strokeColor=none;fillColor=none;" parent="9z99N92EfXgimf6kSds7-51" vertex="1">
          <mxGeometry x="-6" y="86" width="50" height="30" as="geometry" />
        </mxCell>
        <mxCell id="9z99N92EfXgimf6kSds7-53" style="edgeStyle=orthogonalEdgeStyle;rounded=0;orthogonalLoop=1;jettySize=auto;html=1;exitX=0.5;exitY=0;exitDx=0;exitDy=0;entryX=0.561;entryY=1.004;entryDx=0;entryDy=0;entryPerimeter=0;" parent="1" edge="1">
          <mxGeometry relative="1" as="geometry">
            <mxPoint x="189" y="292" as="sourcePoint" />
            <mxPoint x="191.87999999999994" y="252.32" as="targetPoint" />
          </mxGeometry>
        </mxCell>
        <mxCell id="9z99N92EfXgimf6kSds7-54" value="" style="endArrow=classic;html=1;rounded=0;entryX=-0.023;entryY=0.185;entryDx=0;entryDy=0;entryPerimeter=0;" parent="1" target="9z99N92EfXgimf6kSds7-17" edge="1">
          <mxGeometry width="50" height="50" relative="1" as="geometry">
            <mxPoint x="80" y="520" as="sourcePoint" />
            <mxPoint x="290" y="410" as="targetPoint" />
          </mxGeometry>
        </mxCell>
        <mxCell id="9z99N92EfXgimf6kSds7-55" value="" style="endArrow=none;html=1;rounded=0;" parent="1" edge="1">
          <mxGeometry width="50" height="50" relative="1" as="geometry">
            <mxPoint x="80" y="210" as="sourcePoint" />
            <mxPoint x="150" y="210" as="targetPoint" />
          </mxGeometry>
        </mxCell>
        <mxCell id="9z99N92EfXgimf6kSds7-56" value="" style="endArrow=none;html=1;rounded=0;" parent="1" edge="1">
          <mxGeometry width="50" height="50" relative="1" as="geometry">
            <mxPoint x="80" y="520" as="sourcePoint" />
            <mxPoint x="80" y="210" as="targetPoint" />
          </mxGeometry>
        </mxCell>
        <mxCell id="9z99N92EfXgimf6kSds7-58" value="" style="endArrow=classic;html=1;rounded=0;entryX=0;entryY=0.10833333333333334;entryDx=0;entryDy=3;entryPerimeter=0;exitX=1.001;exitY=0.197;exitDx=0;exitDy=0;exitPerimeter=0;" parent="1" source="9z99N92EfXgimf6kSds7-13" target="9z99N92EfXgimf6kSds7-8" edge="1">
          <mxGeometry width="50" height="50" relative="1" as="geometry">
            <mxPoint x="520" y="497" as="sourcePoint" />
            <mxPoint x="520" y="480" as="targetPoint" />
          </mxGeometry>
        </mxCell>
        <mxCell id="9z99N92EfXgimf6kSds7-60" value="" style="endArrow=none;html=1;rounded=0;exitX=0.991;exitY=0.162;exitDx=0;exitDy=0;exitPerimeter=0;" parent="1" edge="1">
          <mxGeometry width="50" height="50" relative="1" as="geometry">
            <mxPoint x="211.63999999999987" y="329.72" as="sourcePoint" />
            <mxPoint x="580" y="330" as="targetPoint" />
          </mxGeometry>
        </mxCell>
        <mxCell id="9z99N92EfXgimf6kSds7-61" value="" style="endArrow=none;html=1;rounded=0;" parent="1" edge="1">
          <mxGeometry width="50" height="50" relative="1" as="geometry">
            <mxPoint x="580" y="550" as="sourcePoint" />
            <mxPoint x="580" y="330" as="targetPoint" />
          </mxGeometry>
        </mxCell>
        <mxCell id="9z99N92EfXgimf6kSds7-62" value="" style="endArrow=classic;html=1;rounded=0;entryX=0;entryY=0.5416666666666667;entryDx=0;entryDy=3;entryPerimeter=0;" parent="1" target="9z99N92EfXgimf6kSds7-8" edge="1">
          <mxGeometry width="50" height="50" relative="1" as="geometry">
            <mxPoint x="580" y="550" as="sourcePoint" />
            <mxPoint x="580" y="490" as="targetPoint" />
          </mxGeometry>
        </mxCell>
        <mxCell id="9z99N92EfXgimf6kSds7-63" value="" style="endArrow=none;html=1;rounded=0;exitX=0.998;exitY=0.491;exitDx=0;exitDy=0;exitPerimeter=0;" parent="1" source="9z99N92EfXgimf6kSds7-6" edge="1">
          <mxGeometry width="50" height="50" relative="1" as="geometry">
            <mxPoint x="873" y="580" as="sourcePoint" />
            <mxPoint x="940" y="580" as="targetPoint" />
          </mxGeometry>
        </mxCell>
        <mxCell id="9z99N92EfXgimf6kSds7-65" value="" style="endArrow=classic;html=1;rounded=0;entryX=1;entryY=0.21666666666666667;entryDx=0;entryDy=3;entryPerimeter=0;" parent="1" target="9z99N92EfXgimf6kSds7-67" edge="1">
          <mxGeometry width="50" height="50" relative="1" as="geometry">
            <mxPoint x="940" y="369" as="sourcePoint" />
            <mxPoint x="380" y="370" as="targetPoint" />
          </mxGeometry>
        </mxCell>
        <mxCell id="9z99N92EfXgimf6kSds7-67" value="PC&lt;br&gt;MUX" style="shadow=0;dashed=0;align=center;html=1;strokeWidth=1;shape=mxgraph.electrical.abstract.mux2;operation=demux;whiteSpace=wrap;" parent="1" vertex="1">
          <mxGeometry x="300" y="340" width="80" height="120" as="geometry" />
        </mxCell>
        <mxCell id="K2oi60XM3H0Ri219pjTM-2" value="" style="endArrow=none;html=1;rounded=0;" parent="1" edge="1">
          <mxGeometry width="50" height="50" relative="1" as="geometry">
            <mxPoint x="560" y="499" as="sourcePoint" />
            <mxPoint x="560" y="420" as="targetPoint" />
          </mxGeometry>
        </mxCell>
        <mxCell id="K2oi60XM3H0Ri219pjTM-3" value="" style="endArrow=classic;html=1;rounded=0;entryX=1;entryY=0.65;entryDx=0;entryDy=3;entryPerimeter=0;" parent="1" target="9z99N92EfXgimf6kSds7-67" edge="1">
          <mxGeometry width="50" height="50" relative="1" as="geometry">
            <mxPoint x="560" y="420" as="sourcePoint" />
            <mxPoint x="490" y="380" as="targetPoint" />
          </mxGeometry>
        </mxCell>
        <mxCell id="K2oi60XM3H0Ri219pjTM-4" value="RD1" style="text;html=1;align=center;verticalAlign=middle;resizable=0;points=[];autosize=1;strokeColor=none;fillColor=none;" parent="1" vertex="1">
          <mxGeometry x="381" y="399" width="50" height="30" as="geometry" />
        </mxCell>
        <mxCell id="K2oi60XM3H0Ri219pjTM-5" value="ALUOUT" style="text;html=1;align=center;verticalAlign=middle;resizable=0;points=[];autosize=1;strokeColor=none;fillColor=none;" parent="1" vertex="1">
          <mxGeometry x="382" y="346" width="70" height="30" as="geometry" />
        </mxCell>
        <mxCell id="K2oi60XM3H0Ri219pjTM-6" value="" style="endArrow=classic;html=1;rounded=0;entryX=0;entryY=0.7583333333333334;entryDx=0;entryDy=3;entryPerimeter=0;" parent="1" target="9z99N92EfXgimf6kSds7-8" edge="1">
          <mxGeometry width="50" height="50" relative="1" as="geometry">
            <mxPoint x="610" y="575" as="sourcePoint" />
            <mxPoint x="620" y="490" as="targetPoint" />
          </mxGeometry>
        </mxCell>
        <mxCell id="K2oi60XM3H0Ri219pjTM-7" value="16" style="text;html=1;align=center;verticalAlign=middle;resizable=0;points=[];autosize=1;strokeColor=none;fillColor=none;" parent="1" vertex="1">
          <mxGeometry x="580" y="560" width="40" height="30" as="geometry" />
        </mxCell>
        <mxCell id="K2oi60XM3H0Ri219pjTM-8" value="" style="endArrow=none;html=1;rounded=0;" parent="1" edge="1">
          <mxGeometry width="50" height="50" relative="1" as="geometry">
            <mxPoint x="940" y="580" as="sourcePoint" />
            <mxPoint x="940" y="370" as="targetPoint" />
          </mxGeometry>
        </mxCell>
        <mxCell id="K2oi60XM3H0Ri219pjTM-10" value="" style="endArrow=none;html=1;rounded=0;exitX=0;exitY=0.4583333333333333;exitDx=0;exitDy=0;exitPerimeter=0;" parent="1" source="9z99N92EfXgimf6kSds7-67" edge="1">
          <mxGeometry width="50" height="50" relative="1" as="geometry">
            <mxPoint x="310" y="410" as="sourcePoint" />
            <mxPoint x="140" y="395" as="targetPoint" />
          </mxGeometry>
        </mxCell>
        <mxCell id="K2oi60XM3H0Ri219pjTM-11" value="" style="endArrow=none;html=1;rounded=0;" parent="1" edge="1">
          <mxGeometry width="50" height="50" relative="1" as="geometry">
            <mxPoint x="140" y="395" as="sourcePoint" />
            <mxPoint x="140" y="340" as="targetPoint" />
          </mxGeometry>
        </mxCell>
        <mxCell id="K2oi60XM3H0Ri219pjTM-13" value="" style="endArrow=classic;html=1;rounded=0;" parent="1" edge="1">
          <mxGeometry width="50" height="50" relative="1" as="geometry">
            <mxPoint x="140" y="340" as="sourcePoint" />
            <mxPoint x="170" y="340" as="targetPoint" />
          </mxGeometry>
        </mxCell>
        <mxCell id="K2oi60XM3H0Ri219pjTM-14" value="IM OUT" style="text;html=1;align=center;verticalAlign=middle;resizable=0;points=[];autosize=1;strokeColor=none;fillColor=none;" parent="1" vertex="1">
          <mxGeometry x="178" y="495" width="70" height="30" as="geometry" />
        </mxCell>
        <mxCell id="K2oi60XM3H0Ri219pjTM-15" value="RD1" style="text;html=1;align=center;verticalAlign=middle;resizable=0;points=[];autosize=1;strokeColor=none;fillColor=none;" parent="1" vertex="1">
          <mxGeometry x="625" y="474" width="50" height="30" as="geometry" />
        </mxCell>
        <mxCell id="K2oi60XM3H0Ri219pjTM-16" value="Immediate" style="text;html=1;align=center;verticalAlign=middle;resizable=0;points=[];autosize=1;strokeColor=none;fillColor=none;" parent="1" vertex="1">
          <mxGeometry x="596" y="499" width="80" height="30" as="geometry" />
        </mxCell>
        <mxCell id="K2oi60XM3H0Ri219pjTM-17" value="PC OUT" style="text;html=1;align=center;verticalAlign=middle;resizable=0;points=[];autosize=1;strokeColor=none;fillColor=none;" parent="1" vertex="1">
          <mxGeometry x="206" y="306" width="70" height="30" as="geometry" />
        </mxCell>
        <mxCell id="K2oi60XM3H0Ri219pjTM-18" value="PC OUT" style="text;html=1;align=center;verticalAlign=middle;resizable=0;points=[];autosize=1;strokeColor=none;fillColor=none;" parent="1" vertex="1">
          <mxGeometry x="605" y="527" width="70" height="30" as="geometry" />
        </mxCell>
        <mxCell id="K2oi60XM3H0Ri219pjTM-19" value="Should be 1 and on other side" style="text;html=1;align=center;verticalAlign=middle;resizable=0;points=[];autosize=1;strokeColor=none;fillColor=none;" parent="1" vertex="1">
          <mxGeometry x="564" y="554" width="180" height="30" as="geometry" />
        </mxCell>
        <mxCell id="K2oi60XM3H0Ri219pjTM-20" value="ALU OUT" style="text;html=1;align=center;verticalAlign=middle;resizable=0;points=[];autosize=1;strokeColor=none;fillColor=none;" parent="1" vertex="1">
          <mxGeometry x="868" y="558" width="80" height="30" as="geometry" />
        </mxCell>
        <mxCell id="K2oi60XM3H0Ri219pjTM-22" value="" style="whiteSpace=wrap;html=1;aspect=fixed;" parent="1" vertex="1">
          <mxGeometry x="865" y="690" width="80" height="80" as="geometry" />
        </mxCell>
        <mxCell id="K2oi60XM3H0Ri219pjTM-23" value="Shifter" style="text;html=1;align=center;verticalAlign=middle;resizable=0;points=[];autosize=1;strokeColor=none;fillColor=none;" parent="1" vertex="1">
          <mxGeometry x="875" y="715" width="60" height="30" as="geometry" />
        </mxCell>
        <mxCell id="K2oi60XM3H0Ri219pjTM-24" value="" style="endArrow=none;html=1;rounded=0;exitX=1;exitY=0.5;exitDx=0;exitDy=0;" parent="1" source="K2oi60XM3H0Ri219pjTM-22" edge="1">
          <mxGeometry width="50" height="50" relative="1" as="geometry">
            <mxPoint x="975" y="740" as="sourcePoint" />
            <mxPoint x="1040" y="730" as="targetPoint" />
          </mxGeometry>
        </mxCell>
        <mxCell id="K2oi60XM3H0Ri219pjTM-25" value="SHFT OUT" style="text;html=1;align=center;verticalAlign=middle;resizable=0;points=[];autosize=1;strokeColor=none;fillColor=none;" parent="1" vertex="1">
          <mxGeometry x="942" y="704" width="80" height="30" as="geometry" />
        </mxCell>
        <mxCell id="K2oi60XM3H0Ri219pjTM-26" value="" style="endArrow=none;html=1;rounded=0;" parent="1" edge="1">
          <mxGeometry width="50" height="50" relative="1" as="geometry">
            <mxPoint x="560" y="830" as="sourcePoint" />
            <mxPoint x="560" y="600" as="targetPoint" />
          </mxGeometry>
        </mxCell>
        <mxCell id="K2oi60XM3H0Ri219pjTM-27" value="" style="endArrow=classic;html=1;rounded=0;entryX=0;entryY=0.65;entryDx=0;entryDy=3;entryPerimeter=0;" parent="1" target="K2oi60XM3H0Ri219pjTM-29" edge="1">
          <mxGeometry width="50" height="50" relative="1" as="geometry">
            <mxPoint x="560" y="830" as="sourcePoint" />
            <mxPoint x="690" y="760" as="targetPoint" />
          </mxGeometry>
        </mxCell>
        <mxCell id="K2oi60XM3H0Ri219pjTM-28" value="Imm" style="text;html=1;align=center;verticalAlign=middle;resizable=0;points=[];autosize=1;strokeColor=none;fillColor=none;" parent="1" vertex="1">
          <mxGeometry x="670" y="807" width="50" height="30" as="geometry" />
        </mxCell>
        <mxCell id="K2oi60XM3H0Ri219pjTM-29" value="SHFT &lt;br&gt;MUX" style="shadow=0;dashed=0;align=center;html=1;strokeWidth=1;shape=mxgraph.electrical.abstract.mux2;whiteSpace=wrap;" parent="1" vertex="1">
          <mxGeometry x="720" y="751" width="80" height="120" as="geometry" />
        </mxCell>
        <mxCell id="K2oi60XM3H0Ri219pjTM-31" value="" style="endArrow=none;html=1;rounded=0;" parent="1" edge="1">
          <mxGeometry width="50" height="50" relative="1" as="geometry">
            <mxPoint x="590" y="780" as="sourcePoint" />
            <mxPoint x="591" y="497" as="targetPoint" />
          </mxGeometry>
        </mxCell>
        <mxCell id="K2oi60XM3H0Ri219pjTM-32" value="" style="endArrow=classic;html=1;rounded=0;entryX=0;entryY=0.21666666666666667;entryDx=0;entryDy=3;entryPerimeter=0;" parent="1" target="K2oi60XM3H0Ri219pjTM-29" edge="1">
          <mxGeometry width="50" height="50" relative="1" as="geometry">
            <mxPoint x="590" y="780" as="sourcePoint" />
            <mxPoint x="710" y="780" as="targetPoint" />
          </mxGeometry>
        </mxCell>
        <mxCell id="K2oi60XM3H0Ri219pjTM-33" value="RD1" style="text;html=1;align=center;verticalAlign=middle;resizable=0;points=[];autosize=1;strokeColor=none;fillColor=none;" parent="1" vertex="1">
          <mxGeometry x="670" y="757" width="50" height="30" as="geometry" />
        </mxCell>
        <mxCell id="K2oi60XM3H0Ri219pjTM-34" value="" style="endArrow=classic;html=1;rounded=0;entryX=0;entryY=0.75;entryDx=0;entryDy=0;" parent="1" target="K2oi60XM3H0Ri219pjTM-22" edge="1">
          <mxGeometry width="50" height="50" relative="1" as="geometry">
            <mxPoint x="810" y="750" as="sourcePoint" />
            <mxPoint x="830" y="730" as="targetPoint" />
          </mxGeometry>
        </mxCell>
        <mxCell id="K2oi60XM3H0Ri219pjTM-35" value="" style="endArrow=none;html=1;rounded=0;" parent="1" edge="1">
          <mxGeometry width="50" height="50" relative="1" as="geometry">
            <mxPoint x="810" y="806" as="sourcePoint" />
            <mxPoint x="810" y="750" as="targetPoint" />
          </mxGeometry>
        </mxCell>
        <mxCell id="K2oi60XM3H0Ri219pjTM-36" value="" style="endArrow=none;html=1;rounded=0;exitX=1;exitY=0.5;exitDx=0;exitDy=-5;exitPerimeter=0;" parent="1" source="K2oi60XM3H0Ri219pjTM-29" edge="1">
          <mxGeometry width="50" height="50" relative="1" as="geometry">
            <mxPoint x="780" y="820" as="sourcePoint" />
            <mxPoint x="810" y="806" as="targetPoint" />
          </mxGeometry>
        </mxCell>
        <mxCell id="K2oi60XM3H0Ri219pjTM-38" value="" style="endArrow=none;html=1;rounded=0;" parent="1" edge="1">
          <mxGeometry width="50" height="50" relative="1" as="geometry">
            <mxPoint x="740" y="710" as="sourcePoint" />
            <mxPoint x="740" y="631" as="targetPoint" />
          </mxGeometry>
        </mxCell>
        <mxCell id="K2oi60XM3H0Ri219pjTM-39" value="" style="endArrow=classic;html=1;rounded=0;entryX=0;entryY=0.25;entryDx=0;entryDy=0;" parent="1" target="K2oi60XM3H0Ri219pjTM-22" edge="1">
          <mxGeometry width="50" height="50" relative="1" as="geometry">
            <mxPoint x="740" y="710" as="sourcePoint" />
            <mxPoint x="730" y="660" as="targetPoint" />
          </mxGeometry>
        </mxCell>
        <mxCell id="K2oi60XM3H0Ri219pjTM-40" value="" style="endArrow=classic;html=1;rounded=0;entryX=-0.003;entryY=0.846;entryDx=0;entryDy=0;entryPerimeter=0;" parent="1" edge="1">
          <mxGeometry width="50" height="50" relative="1" as="geometry">
            <mxPoint x="360" y="542" as="sourcePoint" />
            <mxPoint x="408.73299999999995" y="542.3940000000001" as="targetPoint" />
          </mxGeometry>
        </mxCell>
        <mxCell id="9z99N92EfXgimf6kSds7-22" value="" style="endArrow=classic;html=1;rounded=0;entryX=0;entryY=0.25;entryDx=0;entryDy=0;" parent="1" edge="1">
          <mxGeometry width="50" height="50" relative="1" as="geometry">
            <mxPoint x="290" y="524" as="sourcePoint" />
            <mxPoint x="410" y="524" as="targetPoint" />
            <Array as="points" />
          </mxGeometry>
        </mxCell>
        <mxCell id="9z99N92EfXgimf6kSds7-23" value="Addr. B/WR" style="text;html=1;align=center;verticalAlign=middle;resizable=0;points=[];autosize=1;strokeColor=none;fillColor=none;" parent="1" vertex="1">
          <mxGeometry x="306.6857142857143" y="502" width="90" height="30" as="geometry" />
        </mxCell>
        <mxCell id="K2oi60XM3H0Ri219pjTM-43" value="WA" style="text;html=1;align=center;verticalAlign=middle;resizable=0;points=[];autosize=1;strokeColor=none;fillColor=none;" parent="1" vertex="1">
          <mxGeometry x="358.69" y="521" width="40" height="30" as="geometry" />
        </mxCell>
        <mxCell id="K2oi60XM3H0Ri219pjTM-45" value="" style="endArrow=classic;html=1;rounded=0;entryX=-0.003;entryY=0.846;entryDx=0;entryDy=0;entryPerimeter=0;" parent="1" edge="1">
          <mxGeometry width="50" height="50" relative="1" as="geometry">
            <mxPoint x="360" y="560" as="sourcePoint" />
            <mxPoint x="408.73299999999995" y="560.3940000000001" as="targetPoint" />
          </mxGeometry>
        </mxCell>
        <mxCell id="K2oi60XM3H0Ri219pjTM-46" value="WD" style="text;html=1;align=center;verticalAlign=middle;resizable=0;points=[];autosize=1;strokeColor=none;fillColor=none;" parent="1" vertex="1">
          <mxGeometry x="360" y="538" width="40" height="30" as="geometry" />
        </mxCell>
        <mxCell id="fiiHyoLvmpqvS7D3LmOV-1" value="" style="endArrow=classic;html=1;rounded=0;entryX=0.5;entryY=0;entryDx=0;entryDy=0;" parent="1" edge="1">
          <mxGeometry width="50" height="50" relative="1" as="geometry">
            <mxPoint x="460" y="460" as="sourcePoint" />
            <mxPoint x="459.5" y="482.1" as="targetPoint" />
          </mxGeometry>
        </mxCell>
        <mxCell id="fiiHyoLvmpqvS7D3LmOV-2" value="" style="endArrow=classic;html=1;rounded=0;" parent="1" edge="1">
          <mxGeometry width="50" height="50" relative="1" as="geometry">
            <mxPoint x="940" y="460" as="sourcePoint" />
            <mxPoint x="460" y="460" as="targetPoint" />
          </mxGeometry>
        </mxCell>
        <mxCell id="fiiHyoLvmpqvS7D3LmOV-3" value="ALU OUT" style="text;html=1;align=center;verticalAlign=middle;resizable=0;points=[];autosize=1;strokeColor=none;fillColor=none;" parent="1" vertex="1">
          <mxGeometry x="458" y="438" width="80" height="30" as="geometry" />
        </mxCell>
        <mxCell id="fiiHyoLvmpqvS7D3LmOV-4" value="" style="endArrow=none;html=1;rounded=0;" parent="1" edge="1">
          <mxGeometry width="50" height="50" relative="1" as="geometry">
            <mxPoint x="1040" y="730" as="sourcePoint" />
            <mxPoint x="1040" y="670" as="targetPoint" />
          </mxGeometry>
        </mxCell>
        <mxCell id="fiiHyoLvmpqvS7D3LmOV-5" value="" style="endArrow=classic;html=1;rounded=0;" parent="1" edge="1">
          <mxGeometry width="50" height="50" relative="1" as="geometry">
            <mxPoint x="459" y="590" as="sourcePoint" />
            <mxPoint x="459" y="570" as="targetPoint" />
          </mxGeometry>
        </mxCell>
        <mxCell id="fiiHyoLvmpqvS7D3LmOV-6" value="" style="endArrow=none;html=1;rounded=0;" parent="1" edge="1">
          <mxGeometry width="50" height="50" relative="1" as="geometry">
            <mxPoint x="520" y="670" as="sourcePoint" />
            <mxPoint x="1040" y="670" as="targetPoint" />
          </mxGeometry>
        </mxCell>
        <mxCell id="fiiHyoLvmpqvS7D3LmOV-7" value="" style="endArrow=none;html=1;rounded=0;" parent="1" edge="1">
          <mxGeometry width="50" height="50" relative="1" as="geometry">
            <mxPoint x="519" y="590" as="sourcePoint" />
            <mxPoint x="459" y="590" as="targetPoint" />
          </mxGeometry>
        </mxCell>
        <mxCell id="fiiHyoLvmpqvS7D3LmOV-8" value="" style="endArrow=none;html=1;rounded=0;" parent="1" edge="1">
          <mxGeometry width="50" height="50" relative="1" as="geometry">
            <mxPoint x="520" y="670" as="sourcePoint" />
            <mxPoint x="520" y="590" as="targetPoint" />
          </mxGeometry>
        </mxCell>
        <mxCell id="fiiHyoLvmpqvS7D3LmOV-10" value="" style="whiteSpace=wrap;html=1;aspect=fixed;" parent="1" vertex="1">
          <mxGeometry x="730" y="172" width="80" height="80" as="geometry" />
        </mxCell>
        <mxCell id="fiiHyoLvmpqvS7D3LmOV-11" value="Data&lt;br&gt;Memory" style="text;html=1;align=center;verticalAlign=middle;resizable=0;points=[];autosize=1;strokeColor=none;fillColor=none;" parent="1" vertex="1">
          <mxGeometry x="735" y="192" width="70" height="40" as="geometry" />
        </mxCell>
        <mxCell id="fiiHyoLvmpqvS7D3LmOV-13" value="" style="rounded=0;whiteSpace=wrap;html=1;" parent="1" vertex="1">
          <mxGeometry x="373" y="688" width="50" height="200" as="geometry" />
        </mxCell>
        <mxCell id="fiiHyoLvmpqvS7D3LmOV-14" value="Decode" style="text;html=1;align=center;verticalAlign=middle;resizable=0;points=[];autosize=1;strokeColor=none;fillColor=none;rotation=-90;" parent="1" vertex="1">
          <mxGeometry x="368" y="775" width="60" height="30" as="geometry" />
        </mxCell>
        <mxCell id="fiiHyoLvmpqvS7D3LmOV-15" value="" style="endArrow=classic;html=1;rounded=0;exitX=0.998;exitY=0.891;exitDx=0;exitDy=0;exitPerimeter=0;entryX=0;entryY=0.25;entryDx=0;entryDy=0;" parent="1" source="9z99N92EfXgimf6kSds7-17" target="fiiHyoLvmpqvS7D3LmOV-13" edge="1">
          <mxGeometry width="50" height="50" relative="1" as="geometry">
            <mxPoint x="440" y="720" as="sourcePoint" />
            <mxPoint x="490" y="670" as="targetPoint" />
          </mxGeometry>
        </mxCell>
        <mxCell id="_QiFLpZMK0W3HXGR6YgP-1" value="" style="endArrow=classic;html=1;rounded=0;entryX=1;entryY=0.5;entryDx=0;entryDy=0;" edge="1" parent="1">
          <mxGeometry width="50" height="50" relative="1" as="geometry">
            <mxPoint x="940" y="210" as="sourcePoint" />
            <mxPoint x="810" y="210" as="targetPoint" />
          </mxGeometry>
        </mxCell>
        <mxCell id="_QiFLpZMK0W3HXGR6YgP-2" value="" style="endArrow=none;html=1;rounded=0;" edge="1" parent="1">
          <mxGeometry width="50" height="50" relative="1" as="geometry">
            <mxPoint x="940" y="370" as="sourcePoint" />
            <mxPoint x="939" y="210" as="targetPoint" />
          </mxGeometry>
        </mxCell>
        <mxCell id="_QiFLpZMK0W3HXGR6YgP-3" value="ALU OUT" style="text;html=1;align=center;verticalAlign=middle;resizable=0;points=[];autosize=1;strokeColor=none;fillColor=none;" vertex="1" parent="1">
          <mxGeometry x="819" y="183" width="80" height="30" as="geometry" />
        </mxCell>
        <mxCell id="_QiFLpZMK0W3HXGR6YgP-4" value="" style="endArrow=classic;html=1;rounded=0;entryX=1;entryY=0.25;entryDx=0;entryDy=0;" edge="1" parent="1" target="9z99N92EfXgimf6kSds7-43">
          <mxGeometry width="50" height="50" relative="1" as="geometry">
            <mxPoint x="680" y="307" as="sourcePoint" />
            <mxPoint x="390" y="430" as="targetPoint" />
          </mxGeometry>
        </mxCell>
      </root>
    </mxGraphModel>
  </diagram>
</mxfile>
